# File created by Blade
# Date/Time:  Wed Jan 21 14:37:15 2015
# Frame Rate: 120.000 fps
#------------------------------------------------------
:FULLY-SPECIFIED
:DEGREES
158
root 18.798223 35.615071 -20.853461 -176.101855 -4.027200 -179.468553
Spine -14.152932 4.152038 1.301449
Head -0.490464 -9.434397 2.011019
LeftShoulder 16.486056 -33.166634 -15.118358
LeftArm 17.610344 38.152797 -77.176903
LeftForeArm -70.937929 -0.000000 110.571299
LeftHand -1.388212 -0.000000 8.954682
LeftHandThumb1 -26.253704 0.000000 33.147579
RightShoulder 13.854410 26.618027 -25.282309
RightArm 97.456756 -11.047324 42.389945
RightForeArm -44.838833 0.000000 60.177051
RightHand -4.399950 -0.000000 0.437129
RightHandThumb1 -24.326973 -0.000000 -32.862282
LeftUpLeg 1.349333 11.367445 1.308604
LeftLeg -5.515522 -0.000000 0.000000
LeftFoot -18.111515 28.473323 -11.980189
LeftToeBase 26.417066 -0.000000 -0.000000
RightUpLeg 1.417789 -10.281390 0.654113
RightLeg -3.147389 -0.000000 0.000000
RightFoot -19.478588 -27.378111 12.733031
RightToeBase 24.212889 -0.000000 -0.000000
159
root 18.798394 35.615203 -20.855982 -176.073569 -4.110729 -179.480021
Spine -14.192004 4.236324 1.283986
Head -0.519012 -9.468110 2.035597
LeftShoulder 16.563033 -33.132252 -15.235797
LeftArm 17.425217 37.655979 -77.365109
LeftForeArm -70.430332 -0.000000 111.511525
LeftHand -1.282582 -0.000000 9.191265
LeftHandThumb1 -26.253704 0.000000 33.147579
RightShoulder 13.845137 27.603485 -25.559822
RightArm 97.335278 -11.691845 43.020226
RightForeArm -45.066292 -0.000000 61.373536
RightHand -4.304272 -0.000000 0.771608
RightHandThumb1 -24.326973 -0.000000 -32.862282
LeftUpLeg 1.311699 11.344458 1.294673
LeftLeg -5.511330 -0.000000 0.000000
LeftFoot -18.097764 28.409439 -11.998651
LeftToeBase 26.336685 -0.000000 -0.000000
RightUpLeg 1.396111 -10.300100 0.651370
RightLeg -3.128507 -0.000000 0.000000
RightFoot -19.519705 -27.419635 12.771492
RightToeBase 23.991652 -0.000000 -0.000000
160
root 18.798743 35.615500 -20.858054 -176.037815 -4.208554 -179.492007
Spine -14.230463 4.302229 1.260680
Head -0.545091 -9.579899 2.063182
LeftShoulder 16.605638 -33.073806 -15.347212
LeftArm 17.321892 37.136457 -77.511813
LeftForeArm -70.376110 -0.000000 112.358489
LeftHand -1.166016 -0.000000 9.870308
LeftHandThumb1 -26.253704 0.000000 33.147579
RightShoulder 13.808090 28.485002 -25.847141
RightArm 97.269746 -12.268480 43.659548
RightForeArm -45.159000 -0.000000 62.554282
RightHand -4.106570 -0.000000 1.217671
RightHandThumb1 -24.326973 -0.000000 -32.862282
LeftUpLeg 1.268173 11.285715 1.281293
LeftLeg -5.516252 -0.000000 0.000000
LeftFoot -18.078060 28.373664 -12.004516
LeftToeBase 26.377710 -0.000000 -0.000000
RightUpLeg 1.360031 -10.310498 0.650693
RightLeg -3.096052 -0.000000 0.000000
RightFoot -19.573410 -27.486646 12.783717
RightToeBase 24.051338 -0.000000 -0.000000
161
root 18.797424 35.616011 -20.858051 -176.013549 -4.329281 -179.504662
Spine -14.246359 4.357112 1.241947
Head -0.609946 -9.694977 2.115556
LeftShoulder 16.652056 -33.012482 -15.500194
LeftArm 17.267485 36.671050 -77.589352
LeftForeArm -70.092244 -0.000000 113.194834
LeftHand -0.710703 -0.000000 9.759565
LeftHandThumb1 -26.253704 0.000000 33.147579
RightShoulder 13.551565 29.012068 -26.168737
RightArm 97.688258 -12.630487 44.053411
RightForeArm -45.024862 -0.000000 63.402490
RightHand -4.004358 -0.000000 1.405229
RightHandThumb1 -24.326973 -0.000000 -32.862282
LeftUpLeg 1.201830 11.260824 1.268905
LeftLeg -5.465756 -0.000000 0.000000
LeftFoot -18.068143 28.262554 -11.979725
LeftToeBase 26.380251 -0.000000 -0.000000
RightUpLeg 1.334608 -10.357709 0.645312
RightLeg -3.060176 -0.000000 0.000000
RightFoot -19.613271 -27.530301 12.900604
RightToeBase 23.830756 -0.000000 -0.000000
162
root 18.796823 35.615979 -20.859453 -175.997327 -4.435483 -179.522939
Spine -14.265417 4.413994 1.178445
Head -0.662456 -9.702066 2.226081
LeftShoulder 16.719149 -32.961779 -15.636337
LeftArm 17.142442 36.169348 -77.754383
LeftForeArm -69.362337 -0.000000 114.080249
LeftHand -0.642431 -0.000000 9.794894
LeftHandThumb1 -26.253704 0.000000 33.147579
RightShoulder 13.519083 29.827109 -26.312152
RightArm 97.735566 -13.108316 44.463585
RightForeArm -44.886371 -0.000000 64.380739
RightHand -3.887419 -0.000000 1.287718
RightHandThumb1 -24.326973 -0.000000 -32.862282
LeftUpLeg 1.165812 11.239153 1.251518
LeftLeg -5.452559 -0.000000 0.000000
LeftFoot -18.056630 28.180043 -11.965330
LeftToeBase 26.416501 -0.000000 -0.000000
RightUpLeg 1.319459 -10.398770 0.633791
RightLeg -3.032026 -0.000000 0.000000
RightFoot -19.658354 -27.543185 12.924187
RightToeBase 23.804614 -0.000000 -0.000000
163
root 18.796871 35.615566 -20.860360 -175.963963 -4.532607 -179.540345
Spine -14.274711 4.459307 1.158142
Head -0.726729 -9.914063 2.243065
LeftShoulder 16.719407 -33.003833 -15.787834
LeftArm 17.043876 35.702084 -77.879228
LeftForeArm -69.315058 -0.000000 114.956104
LeftHand -0.646689 -0.000000 9.981654
LeftHandThumb1 -26.253704 0.000000 33.147579
RightShoulder 13.313003 30.450202 -26.556607
RightArm 98.105849 -13.515510 44.862604
RightForeArm -44.472711 -0.000000 65.228214
RightHand -3.743575 -0.000000 1.474869
RightHandThumb1 -24.326973 -0.000000 -32.862282
LeftUpLeg 1.130963 11.187168 1.229599
LeftLeg -5.478015 -0.000000 0.000000
LeftFoot -18.029221 28.151508 -11.951964
LeftToeBase 26.453430 -0.000000 -0.000000
RightUpLeg 1.282073 -10.451973 0.628002
RightLeg -2.996359 -0.000000 0.000000
RightFoot -19.710544 -27.608186 12.872968
RightToeBase 24.161927 -0.000000 -0.000000
164
root 18.795776 35.614380 -20.860553 -175.902004 -4.655190 -179.566794
Spine -14.294996 4.191341 1.220780
Head -0.862339 -9.732048 2.213520
LeftShoulder 16.340448 -33.132423 -15.762719
LeftArm 16.997634 35.255697 -78.042720
LeftForeArm -69.358010 -0.000000 115.809961
LeftHand -0.958796 0.000000 10.458911
LeftHandThumb1 -26.253704 0.000000 33.147579
RightShoulder 13.472851 31.630788 -26.699948
RightArm 98.038378 -14.264916 45.560642
RightForeArm -44.394505 0.000000 66.164298
RightHand -3.790415 -0.000000 1.699642
RightHandThumb1 -24.326973 -0.000000 -32.862282
LeftUpLeg 1.031488 11.144777 1.197876
LeftLeg -5.437089 -0.000000 0.000000
LeftFoot -18.024345 28.065334 -11.916067
LeftToeBase 26.508527 -0.000000 -0.000000
RightUpLeg 1.215727 -10.483405 0.617525
RightLeg -2.951818 -0.000000 0.000000
RightFoot -19.774810 -27.677636 12.875838
RightToeBase 23.932582 -0.000000 -0.000000
